{"title":"Aloha 2015 360p BDrip XviD MP3 OmiTube","uid":12413609,"size":794792050,"categoryP":"video","categoryS":"movies","magnet":"?xt=urn:btih:f889b819d05ee4c1e79bfcaa95c17486300dc026&amp;dn=Aloha+2015+360p+BDrip+XviD+MP3+OmiTube&amp;tr=udp%3A%2F%2Ftracker.openbittorrent.com%3A80&amp;tr=udp%3A%2F%2Fopen.demonii.com%3A1337&amp;tr=udp%3A%2F%2Ftracker.coppersurfer.tk%3A6969&amp;tr=udp%3A%2F%2Fexodus.desync.com%3A6969","seeders":1,"leechers":0,"uploader":"Omifast","files":7,"time":1442189564,"description":"Aloha (I) (2015)\nPG-13 | 105 min | Comedy, Drama, Romance | 29 May 2015 (USA)\n\nWhile on assignment in Oahu, Hawaii, military contractor Brian Gilcrest (Bradley Cooper) reconnects with his old flame Tracy Woodside (Rachel McAdams), now married to an Air Force recruit (John Krasinski). He also spends time with Allison Ng (Emma Stone), a hard-nosed fighter pilot who watches every move that he makes. As they travel throughout the lush terrain, Brian finds himself falling for his feisty guide, while his conversations with Tracy may provide a shocking revelation from their past.\n\nStars: Bradley Cooper, Rachel McAdams, Emma Stone\n\n===========================================\n\nSnapshots  &lt;a href=&quot;\nhttp://imgur.com/8XKNJIt&quot; rel=&quot;nofollow&quot; target=&quot;_NEW&quot;&gt;\nhttp://imgur.com/8XKNJIt&lt;/a&gt;\n\n===========================================\n\nSample, Snapshots and Media Info Included\n\n\nOmiTube Online Movies  &lt;a href=&quot;\nhttp://www.omitube.com/&quot; rel=&quot;nofollow&quot; target=&quot;_NEW&quot;&gt;\nhttp://www.omitube.com/&lt;/a&gt;\n\n============================================\n\n\nMEDIA INFO\nGeneral\nComplete name                  : Aloha 2015 360p BDrip XviD MP3 OmiTube.avi\nFormat                         : AVI\nFormat/Info                    : Audio Video Interleave\nFile size                      : 746 MiB\nDuration                       : 1h 44mn\nOverall bit rate mode          : Variable\nOverall bit rate               : 997 Kbps\nWriting application            : VirtualDubMod 1.5.4.1 (build 2178/release)\nWriting library                : VirtualDubMod build 2178/release\n\nVideo\nID                             : 0\nFormat                         : MPEG-4 Visual\nFormat profile                 : Advanced Simple@L5\nFormat settings, BVOP          : 1\nFormat settings, QPel          : No\nFormat settings, GMC           : No warppoints\nFormat settings, Matrix        : Custom\nCodec ID                       : XVID\nCodec ID/Hint                  : XviD\nDuration                       : 1h 44mn\nBit rate                       : 870 Kbps\nWidth                          : 640 pixels\nHeight                         : 352 pixels\nDisplay aspect ratio           : 16:9\nFrame rate                     : 23.976 fps\nColor space                    : YUV\nChroma subsampling             : 4:2:0\nBit depth                      : 8 bits\nScan type                      : Progressive\nCompression mode               : Lossy\nBits/(Pixel*Frame)             : 0.161\nStream size                    : 651 MiB (87%)\nWriting library                : XviD 73\n\nAudio\nID                             : 1\nFormat                         : MPEG Audio\nFormat version                 : Version 1\nFormat profile                 : Layer 3\nMode                           : Joint stereo\nCodec ID                       : 55\nCodec ID/Hint                  : MP3\nDuration                       : 1h 44mn\nBit rate mode                  : Variable\nBit rate                       : 114 Kbps\nNominal bit rate               : 128 Kbps\nChannel(s)                     : 2 channels\nSampling rate                  : 48.0 KHz\nCompression mode               : Lossy\nStream size                    : 85.7 MiB (11%)\nAlignment                      : Aligned on interleaves\nInterleave, duration           : 24 ms (0.58 video frame)\nInterleave, preload duration   : 378 ms\nWriting library                : LAME3.98r\nEncoding settings              : -m j -V 4 -q 2 -lowpass 17 --abr 128","torrent":{"xt":"urn:btih:f889b819d05ee4c1e79bfcaa95c17486300dc026","amp;dn":"Aloha+2015+360p+BDrip+XviD+MP3+OmiTube","amp;tr":["udp%3A%2F%2Ftracker.openbittorrent.com%3A80","udp%3A%2F%2Fopen.demonii.com%3A1337","udp%3A%2F%2Ftracker.coppersurfer.tk%3A6969","udp%3A%2F%2Fexodus.desync.com%3A6969"],"infoHash":"f889b819d05ee4c1e79bfcaa95c17486300dc026","infoHashBuffer":{"type":"Buffer","data":[248,137,184,25,208,94,228,193,231,155,252,170,149,193,116,134,48,13,192,38]},"announce":[],"urlList":[]}}